<svg xmlns="http://www.w3.org/2000/svg" viewBox="0 0 32 30" width="32" height="30">
	<style>
		tspan { white-space:pre }
		.shp0 { fill: #7f7e7e } 
	</style>
	<g id="Header">
		<g id="Shoping cart">
			<path id="Shape 3 copy" class="shp0" d="M24.53 26.09C23.08 26.09 21.91 24.92 21.91 23.48C21.91 22.04 23.08 20.87 24.53 20.87C25.97 20.87 27.14 22.04 27.14 23.48C27.14 24.92 25.97 26.09 24.53 26.09ZM24.53 22.61C24.05 22.61 23.66 23 23.66 23.48C23.66 23.96 24.05 24.35 24.53 24.35C25.01 24.35 25.4 23.96 25.4 23.48C25.4 23 25.01 22.61 24.53 22.61ZM12.58 26.09C11.14 26.09 9.97 24.92 9.97 23.48C9.97 22.04 11.14 20.87 12.58 20.87C14.02 20.87 15.19 22.04 15.19 23.48C15.19 24.92 14.02 26.09 12.58 26.09ZM12.58 22.61C12.1 22.61 11.71 23 11.71 23.48C11.71 23.96 12.1 24.35 12.58 24.35C13.06 24.35 13.45 23.96 13.45 23.48C13.45 23 13.06 22.61 12.58 22.61ZM23.84 22.92L11.65 22.92C11.24 22.92 10.89 22.64 10.8 22.24L6.52 4.01L3.37 4.01C2.89 4.01 2.5 3.44 2.5 2.96C2.5 2.47 2.89 1.99 3.37 1.99L7.21 1.99C7.62 1.99 7.97 2.55 8.06 2.95L12.34 20.96L23.84 20.96C24.32 20.96 24.77 21.48 24.77 21.96C24.77 22.44 24.32 22.92 23.84 22.92ZM25.33 18.99L11.21 18.99C10.73 18.99 10.34 18.6 10.34 18.12C10.34 17.64 10.73 17.25 11.21 17.25L8.69 9.79C8.21 9.79 7.82 9.4 7.82 8.92C7.82 8.44 8.21 8.05 8.69 8.05L28.37 8.05C28.65 8.05 28.91 8.18 29.07 8.41C29.23 8.63 29.28 8.92 29.2 9.18L26.17 18.38C26.05 18.74 25.71 18.99 25.33 18.99Z" />
		</g>
	</g>
</svg>